# xmcd
#
# Track frame offsets: 
#        150
#        14082
#        28950
#        45066
#        61254
#        77673
#        93080
#        108675
#
# Disc length: 1640 seconds
#
# Revision: 0
# Processed by: cddbd v1.5.2PL0 Copyright (c) Steve Scherf et al.
# Submitted via: ExactAudioCopy v0.99pb5
#
DISCID=5b066608
DTITLE=The Boom Chucka Boys - Ramble
DYEAR=2015
DGENRE=Contemporary Country
TTITLE0=Ramble
TTITLE1=Rebel Wings
TTITLE2=Turn This Car Around
TTITLE3=Won't Ever Stop Trying
TTITLE4=Vagabond Dreams
TTITLE5=Painkiller
TTITLE6=Runaway Heart
TTITLE7=Can't Take My Lips off You
EXTD=
EXTT0=
EXTT1=
EXTT2=
EXTT3=
EXTT4=
EXTT5=
EXTT6=
EXTT7=
PLAYORDER=
